<?xml version="1.0" encoding="UTF-8" standalone="no"?>
<!-- Created with Inkscape (http://www.inkscape.org/) -->

<svg
   xmlns:dc="http://purl.org/dc/elements/1.1/"
   xmlns:cc="http://creativecommons.org/ns#"
   xmlns:rdf="http://www.w3.org/1999/02/22-rdf-syntax-ns#"
   xmlns:svg="http://www.w3.org/2000/svg"
   xmlns="http://www.w3.org/2000/svg"
   xmlns:sodipodi="http://sodipodi.sourceforge.net/DTD/sodipodi-0.dtd"
   xmlns:inkscape="http://www.inkscape.org/namespaces/inkscape"
   id="svg2985"
   version="1.1"
   inkscape:version="0.48.2 r9819"
   width="743.75"
   height="1052.5"
   xml:space="preserve"
   sodipodi:docname="evolution.svg"><metadata
     id="metadata2991"><rdf:RDF><cc:Work
         rdf:about=""><dc:format>image/svg+xml</dc:format><dc:type
           rdf:resource="http://purl.org/dc/dcmitype/StillImage" /><dc:title></dc:title></cc:Work></rdf:RDF></metadata><defs
     id="defs2989" /><sodipodi:namedview
     pagecolor="#ffffff"
     bordercolor="#666666"
     borderopacity="1"
     objecttolerance="10"
     gridtolerance="10"
     guidetolerance="10"
     inkscape:pageopacity="0"
     inkscape:pageshadow="2"
     inkscape:window-width="1280"
     inkscape:window-height="962"
     id="namedview2987"
     showgrid="false"
     inkscape:zoom="1.2684253"
     inkscape:cx="419.42933"
     inkscape:cy="527.85685"
     inkscape:window-x="-8"
     inkscape:window-y="-8"
     inkscape:window-maximized="1"
     inkscape:current-layer="g2993" /><g
     id="g2993"
     inkscape:groupmode="layer"
     inkscape:label="optimization_book"
     transform="matrix(1.25,0,0,-1.25,0,1052.5)"><path
       inkscape:connector-curvature="0"
       id="path3183"
       style="fill:#f2f2f2;fill-opacity:1;fill-rule:evenodd;stroke:none"
       d="m 386.416,431.006 94.032,0 c 1.522,0 2.766,-1.09 2.766,-2.424 l 0,-43.618 c 0,-1.333 -1.244,-2.423 -2.766,-2.423 l -94.032,0 c -1.521,0 -2.766,1.09 -2.766,2.423 l 0,43.618 c 0,1.334 1.245,2.424 2.766,2.424" /><path
       inkscape:connector-curvature="0"
       id="path3185"
       style="fill:none;stroke:#bdbcbc;stroke-width:0.85038996;stroke-linecap:butt;stroke-linejoin:miter;stroke-miterlimit:22.92560005;stroke-opacity:1;stroke-dasharray:none"
       d="m 386.416,431.006 94.032,0 c 1.522,0 2.766,-1.09 2.766,-2.424 l 0,-43.618 c 0,-1.333 -1.244,-2.423 -2.766,-2.423 l -94.032,0 c -1.521,0 -2.766,1.09 -2.766,2.423 l 0,43.618 c 0,1.334 1.245,2.424 2.766,2.424 z" /><path
       inkscape:connector-curvature="0"
       id="path3187"
       style="fill:#f2f2f2;fill-opacity:1;fill-rule:evenodd;stroke:none"
       d="m 322.161,346.206 94.032,0 c 1.522,0 2.766,-1.09 2.766,-2.424 l 0,-43.618 c 0,-1.333 -1.244,-2.423 -2.766,-2.423 l -94.032,0 c -1.522,0 -2.766,1.09 -2.766,2.423 l 0,43.618 c 0,1.334 1.244,2.424 2.766,2.424" /><path
       inkscape:connector-curvature="0"
       id="path3189"
       style="fill:none;stroke:#bdbcbc;stroke-width:0.85038996;stroke-linecap:butt;stroke-linejoin:miter;stroke-miterlimit:22.92560005;stroke-opacity:1;stroke-dasharray:none"
       d="m 322.161,346.206 94.032,0 c 1.522,0 2.766,-1.09 2.766,-2.424 l 0,-43.618 c 0,-1.333 -1.244,-2.423 -2.766,-2.423 l -94.032,0 c -1.522,0 -2.766,1.09 -2.766,2.423 l 0,43.618 c 0,1.334 1.244,2.424 2.766,2.424 z" /><path
       inkscape:connector-curvature="0"
       id="path3191"
       style="fill:#f2f2f2;fill-opacity:1;fill-rule:evenodd;stroke:none"
       d="m 250.416,430.852 94.032,0 c 1.522,0 2.766,-1.09 2.766,-2.423 l 0,-43.618 c 0,-1.333 -1.244,-2.424 -2.766,-2.424 l -94.032,0 c -1.521,0 -2.766,1.091 -2.766,2.424 l 0,43.618 c 0,1.333 1.245,2.423 2.766,2.423" /><path
       inkscape:connector-curvature="0"
       id="path3193"
       style="fill:none;stroke:#bdbcbc;stroke-width:0.85038996000000000;stroke-linecap:butt;stroke-linejoin:miter;stroke-miterlimit:22.92560005000000000;stroke-opacity:1;stroke-dasharray:none"
       d="m 250.416,430.852 94.032,0 c 1.522,0 2.766,-1.09 2.766,-2.423 l 0,-43.618 c 0,-1.333 -1.244,-2.424 -2.766,-2.424 l -94.032,0 c -1.521,0 -2.766,1.091 -2.766,2.424 l 0,43.618 c 0,1.333 1.245,2.423 2.766,2.423 z" /><path
       inkscape:connector-curvature="0"
       id="path3199"
       style="fill:#f2f2f2;fill-opacity:1;fill-rule:evenodd;stroke:none"
       d="m 114.671,430.852 94.032,0 c 1.522,0 2.766,-1.09 2.766,-2.423 l 0,-43.618 c 0,-1.333 -1.244,-2.424 -2.766,-2.424 l -94.032,0 c -1.522,0 -2.766,1.091 -2.766,2.424 l 0,43.618 c 0,1.333 1.244,2.423 2.766,2.423" /><path
       inkscape:connector-curvature="0"
       id="path3201"
       style="fill:none;stroke:#bdbcbc;stroke-width:0.85038996000000000;stroke-linecap:butt;stroke-linejoin:miter;stroke-miterlimit:22.92560005000000000;stroke-opacity:1;stroke-dasharray:none"
       d="m 114.671,430.852 94.032,0 c 1.522,0 2.766,-1.09 2.766,-2.423 l 0,-43.618 c 0,-1.333 -1.244,-2.424 -2.766,-2.424 l -94.032,0 c -1.522,0 -2.766,1.091 -2.766,2.424 l 0,43.618 c 0,1.333 1.244,2.423 2.766,2.423 z" /><path
       inkscape:connector-curvature="0"
       id="path3203"
       style="fill:#d3d2d2;fill-opacity:1;fill-rule:evenodd;stroke:none"
       d="m 368.14,409.214 -0.924,0.115 -0.923,0.077 -0.924,0.039 -1.81,0 -0.885,-0.039 -0.885,-0.077 -0.847,-0.077 -0.885,-0.154 -0.847,-0.154 -0.847,-0.192 -0.847,-0.193 -0.846,-0.23 -0.809,-0.27 -0.847,-0.308 -0.808,-0.308 -0.808,-0.346 -0.77,-0.385 -0.77,-0.385 -0.77,-0.423 -6.698,11.547 0.578,0.308 0.577,0.346 0.577,0.308 0.578,0.269 0.616,0.309 0.577,0.269 0.616,0.27 0.616,0.231 0.577,0.269 0.616,0.231 0.616,0.231 0.616,0.192 0.616,0.193 0.654,0.23 0.616,0.155 0.616,0.192 0.654,0.154 0.616,0.154 0.655,0.154 0.616,0.115 0.653,0.116 0.655,0.116 0.655,0.115 0.615,0.077 0.655,0.077 0.654,0.077 0.655,0.077 0.654,0.039 0.654,0.038 0.654,0.038 2.733,0 0.693,-0.038 0.693,-0.038 0.693,-0.078 0.693,-0.038 0.693,-0.116 0.693,-0.076 1.385,9.931 14.204,-18.862 -18.823,-14.203 1.386,9.931 0,0" /><path
       inkscape:connector-curvature="0"
       id="path3205"
       style="fill:none;stroke:#231f20;stroke-width:0.99212998;stroke-linecap:butt;stroke-linejoin:miter;stroke-miterlimit:22.92560005;stroke-opacity:1;stroke-dasharray:none"
       d="m 368.14,409.214 -0.924,0.115 -0.923,0.077 -0.924,0.039 -1.81,0 -0.885,-0.039 -0.885,-0.077 -0.847,-0.077 -0.885,-0.154 -0.847,-0.154 -0.847,-0.192 -0.847,-0.193 -0.846,-0.23 -0.809,-0.27 -0.847,-0.308 -0.808,-0.308 -0.808,-0.346 -0.77,-0.385 -0.77,-0.385 -0.77,-0.423 -6.698,11.547 0.578,0.308 0.577,0.346 0.577,0.308 0.578,0.269 0.616,0.309 0.577,0.269 0.616,0.27 0.616,0.231 0.577,0.269 0.616,0.231 0.616,0.231 0.616,0.192 0.616,0.193 0.654,0.23 0.616,0.155 0.616,0.192 0.654,0.154 0.616,0.154 0.655,0.154 0.616,0.115 0.653,0.116 0.655,0.116 0.655,0.115 0.615,0.077 0.655,0.077 0.654,0.077 0.655,0.077 0.654,0.039 0.654,0.038 0.654,0.038 2.733,0 0.693,-0.038 0.693,-0.038 0.693,-0.078 0.693,-0.038 0.693,-0.116 0.693,-0.076 1.385,9.931 14.204,-18.862 -18.823,-14.203 1.386,9.931 0,0 z" /><path
       inkscape:connector-curvature="0"
       id="path3207"
       style="fill:#d3d2d2;fill-opacity:1;fill-rule:evenodd;stroke:none"
       d="m 403.908,361.159 0.115,0.925 0.077,0.923 0.038,0.924 0.039,0.924 -0.039,0.886 -0.038,0.885 -0.077,0.847 -0.077,0.885 -0.154,0.847 -0.154,0.885 -0.154,0.847 -0.231,0.847 -0.231,0.846 -0.269,0.809 -0.308,0.808 -0.308,0.847 -0.346,0.77 -0.386,0.808 -0.384,0.77 -0.424,0.77 11.548,6.698 0.346,-0.578 0.308,-0.577 0.308,-0.577 0.27,-0.617 0.308,-0.577 0.269,-0.616 0.269,-0.577 0.231,-0.616 0.27,-0.616 0.231,-0.577 0.231,-0.616 0.193,-0.616 0.23,-0.654 0.193,-0.616 0.192,-0.616 0.154,-0.616 0.154,-0.654 0.154,-0.616 0.154,-0.655 0.154,-0.654 0.115,-0.616 0.116,-0.654 0.077,-0.654 0.116,-0.655 0.076,-0.654 0.077,-0.616 0.039,-0.655 0.038,-0.654 0.039,-0.654 0.039,-0.693 0,-0.655 0.038,-0.654 -0.038,-0.693 0,-0.693 -0.039,-0.692 -0.039,-0.693 -0.038,-0.693 -0.077,-0.693 -0.077,-0.731 -0.116,-0.693 9.931,-1.386 -18.861,-14.204 -14.203,18.862 9.931,-1.387 0,0" /><path
       inkscape:connector-curvature="0"
       id="path3209"
       style="fill:none;stroke:#231f20;stroke-width:0.99212998;stroke-linecap:butt;stroke-linejoin:miter;stroke-miterlimit:22.92560005;stroke-opacity:1;stroke-dasharray:none"
       d="m 403.908,361.159 0.115,0.925 0.077,0.923 0.038,0.924 0.039,0.924 -0.039,0.886 -0.038,0.885 -0.077,0.847 -0.077,0.885 -0.154,0.847 -0.154,0.885 -0.154,0.847 -0.231,0.847 -0.231,0.846 -0.269,0.809 -0.308,0.808 -0.308,0.847 -0.346,0.77 -0.386,0.808 -0.384,0.77 -0.424,0.77 11.548,6.698 0.346,-0.578 0.308,-0.577 0.308,-0.577 0.27,-0.617 0.308,-0.577 0.269,-0.616 0.269,-0.577 0.231,-0.616 0.27,-0.616 0.231,-0.577 0.231,-0.616 0.193,-0.616 0.23,-0.654 0.193,-0.616 0.192,-0.616 0.154,-0.616 0.154,-0.654 0.154,-0.616 0.154,-0.655 0.154,-0.654 0.115,-0.616 0.116,-0.654 0.077,-0.654 0.116,-0.655 0.076,-0.654 0.077,-0.616 0.039,-0.655 0.038,-0.654 0.039,-0.654 0.039,-0.693 0,-0.655 0.038,-0.654 -0.038,-0.693 0,-0.693 -0.039,-0.692 -0.039,-0.693 -0.038,-0.693 -0.077,-0.693 -0.077,-0.731 -0.116,-0.693 9.931,-1.386 -18.861,-14.204 -14.203,18.862 9.931,-1.387 0,0 z" /><path
       inkscape:connector-curvature="0"
       id="path3215"
       style="fill:#d3d2d2;fill-opacity:1;fill-rule:evenodd;stroke:none"
       d="m 334.701,367.453 -0.115,-0.923 -0.077,-0.925 -0.039,-0.962 -0.038,-0.924 0.038,-0.885 0.039,-0.847 0.077,-0.885 0.077,-0.847 0.115,-0.885 0.193,-0.847 0.154,-0.847 0.23,-0.847 0.231,-0.847 0.27,-0.846 0.308,-0.809 0.308,-0.808 0.346,-0.808 0.385,-0.77 0.385,-0.809 0.423,-0.769 -11.547,-6.659 -0.347,0.576 -0.307,0.578 -0.308,0.578 -0.27,0.577 -0.308,0.616 -0.269,0.577 -0.27,0.616 -0.269,0.577 -0.231,0.616 -0.231,0.616 -0.231,0.616 -0.193,0.616 -0.23,0.616 -0.193,0.616 -0.193,0.654 -0.153,0.616 -0.154,0.616 -0.154,0.654 -0.154,0.616 -0.154,0.654 -0.116,0.655 -0.115,0.616 -0.077,0.654 -0.116,0.654 -0.076,0.655 -0.077,0.654 -0.039,0.655 -0.039,0.654 -0.038,0.654 -0.038,0.655 0,2.733 0.038,0.692 0.038,0.694 0.039,0.692 0.077,0.693 0.077,0.693 0.115,0.693 -9.931,1.385 18.862,14.204 14.203,-18.823 -9.931,1.386 0,0" /><g
       id="g3217"
       transform="matrix(0.1,0,0,0.1,14.4,0)"><path
         inkscape:connector-curvature="0"
         id="path3219"
         style="fill:none;stroke:#231f20;stroke-width:10.91300011;stroke-linecap:butt;stroke-linejoin:miter;stroke-miterlimit:22.92560005;stroke-opacity:1;stroke-dasharray:none"
         d="m 3203.01,3674.53 -1.15,-9.23 -0.77,-9.25 -0.39,-9.62 -0.38,-9.24 0.38,-8.85 0.39,-8.47 0.77,-8.85 0.77,-8.47 1.15,-8.85 1.93,-8.47 1.54,-8.47 2.31,-8.47 2.3,-8.47 2.7,-8.47 3.08,-8.08 3.08,-8.08 3.46,-8.09 3.85,-7.7 3.85,-8.08 4.23,-7.7 -115.47,-66.59 -3.47,5.77 -3.07,5.78 -3.08,5.77 -2.69,5.78 -3.09,6.16 -2.69,5.77 -2.7,6.16 -2.69,5.77 -2.31,6.16 -2.31,6.16 -2.31,6.16 -1.92,6.16 -2.31,6.16 -1.92,6.15 -1.93,6.55 -1.54,6.16 -1.54,6.16 -1.54,6.54 -1.54,6.16 -1.54,6.54 -1.16,6.55 -1.15,6.16 -0.77,6.54 -1.15,6.54 -0.77,6.55 -0.77,6.54 -0.39,6.55 -0.39,6.54 -0.38,6.54 -0.38,6.55 0,27.33 0.38,6.92 0.38,6.94 0.39,6.92 0.77,6.93 0.77,6.93 1.15,6.93 -99.31,13.85 188.62,142.04 142.04,-188.23 -99.32,13.86 0,0 z" /></g><path
       inkscape:connector-curvature="0"
       id="path3221"
       style="fill:#d3d2d2;fill-opacity:1;fill-rule:evenodd;stroke:none"
       d="m 229.57,423.465 0,-10.001 -21.232,0 0,-13.688 21.232,0 0,-10.001 18.943,16.823 -18.943,16.867" /><path
       inkscape:connector-curvature="0"
       id="path3223"
       style="fill:none;stroke:#231f20;stroke-width:0.99212997999999997;stroke-linecap:butt;stroke-linejoin:miter;stroke-miterlimit:22.92560005000000000;stroke-opacity:1;stroke-dasharray:none"
       d="m 229.57,423.465 0,-10.001 -21.232,0 0,-13.688 21.232,0 0,-10.001 18.943,16.823 -18.943,16.867 z" /><text
       transform="scale(1,-1)"
       id="text3227"
       x="387.9715"
       y="-418.53632"><tspan
         style="font-size:9.99989986px;font-variant:normal;font-weight:normal;writing-mode:lr-tb;fill:#231f20;fill-opacity:1;fill-rule:nonzero;stroke:none;font-family:Sans;-inkscape-font-specification:Sans"
         sodipodi:role="line"
         id="tspan3229"
         x="387.9715"
         y="-418.53632">Reproduction</tspan></text>
<text
       transform="scale(1,-1)"
       id="text3231"
       x="251.97099"
       y="-320.36841"><tspan
         style="font-size:8.49983025px;font-variant:normal;font-weight:normal;writing-mode:lr-tb;fill:#231f20;fill-opacity:1;fill-rule:nonzero;stroke:none;font-family:Cmr10;-inkscape-font-specification:Cmr10"
         x="330.18643 334.43634"
         sodipodi:role="line"
         id="tspan3237" /></text>
<text
       transform="scale(1,-1)"
       id="text3239"
       x="324.61676"
       y="-333.73563"><tspan
         style="font-size:9.99989986px;font-variant:normal;font-weight:normal;writing-mode:lr-tb;fill:#231f20;fill-opacity:1;fill-rule:nonzero;stroke:none;font-family:Sans;-inkscape-font-specification:Sans"
         sodipodi:role="line"
         id="tspan3241"
         x="324.61676"
         y="-333.73563">Selection</tspan></text>
<text
       transform="scale(1,-1)"
       id="text3243"
       x="388.617"
       y="-320.27313"><tspan
         style="font-size:8.49983025px;font-variant:normal;font-weight:normal;writing-mode:lr-tb;fill:#231f20;fill-opacity:1;fill-rule:nonzero;stroke:none;font-family:Cmr10;-inkscape-font-specification:Cmr10"
         x="468.91489 473.16479"
         sodipodi:role="line"
         id="tspan3247" /></text>
<text
       transform="scale(1,-1)"
       id="text3249"
       x="251.97099"
       y="-418.27573"><tspan
         style="font-size:9.99989985999999930px;font-variant:normal;font-weight:normal;writing-mode:lr-tb;fill:#231f20;fill-opacity:1;fill-rule:nonzero;stroke:none;font-family:Sans;-inkscape-font-specification:Sans"
         sodipodi:role="line"
         id="tspan3251"
         x="251.97099"
         y="-418.27573">Evaluation</tspan></text>
<text
       transform="scale(1,-1)"
       id="text3253"
       x="251.97099"
       y="-405.62302"><tspan
         style="font-size:8.49983025px;font-variant:normal;font-weight:normal;writing-mode:lr-tb;fill:#231f20;fill-opacity:1;fill-rule:nonzero;stroke:none;font-family:Sans;-inkscape-font-specification:Sans"
         sodipodi:role="line"
         id="tspan3259"
         x="251.97099"
         y="-405.62302">compute the objective</tspan><tspan
         style="font-size:8.49983025px;font-variant:normal;font-weight:normal;writing-mode:lr-tb;fill:#231f20;fill-opacity:1;fill-rule:nonzero;stroke:none;font-family:Sans;-inkscape-font-specification:Sans"
         sodipodi:role="line"
         x="251.97099"
         y="-394.99823"
         id="tspan3709">values of the solution</tspan><tspan
         style="font-size:8.49983025px;font-variant:normal;font-weight:normal;writing-mode:lr-tb;fill:#231f20;fill-opacity:1;fill-rule:nonzero;stroke:none;font-family:Sans;-inkscape-font-specification:Sans"
         sodipodi:role="line"
         x="251.97099"
         y="-384.37344"
         id="tspan3711">candidates</tspan></text>
<text
       transform="scale(1,-1)"
       id="text3273"
       x="117.721"
       y="-418.27573"><tspan
         style="font-size:9.99989985999999930px;font-variant:normal;font-weight:normal;writing-mode:lr-tb;fill:#231f20;fill-opacity:1;fill-rule:nonzero;stroke:none;font-family:Sans;-inkscape-font-specification:Sans"
         x="117.721"
         sodipodi:role="line"
         id="tspan3275"
         y="-418.27573">Initial Population</tspan></text>
<text
       transform="scale(1,-1)"
       id="text3277"
       x="116.24405"
       y="-405.62302"><tspan
         style="font-size:8.49983025px;font-variant:normal;font-weight:normal;writing-mode:lr-tb;fill:#231f20;fill-opacity:1;fill-rule:nonzero;stroke:none;font-family:Sans;-inkscape-font-specification:Sans"
         sodipodi:role="line"
         id="tspan3283"
         x="116.24405"
         y="-405.62302">createan initial</tspan><tspan
         style="font-size:8.49983025px;font-variant:normal;font-weight:normal;writing-mode:lr-tb;fill:#231f20;fill-opacity:1;fill-rule:nonzero;stroke:none;font-family:Sans;-inkscape-font-specification:Sans"
         sodipodi:role="line"
         x="116.24405"
         y="-394.99823"
         id="tspan3700">population of random</tspan><tspan
         style="font-size:8.49983025px;font-variant:normal;font-weight:normal;writing-mode:lr-tb;fill:#231f20;fill-opacity:1;fill-rule:nonzero;stroke:none;font-family:Sans;-inkscape-font-specification:Sans"
         sodipodi:role="line"
         x="116.24405"
         y="-384.37344"
         id="tspan3702">individuals</tspan></text>
<flowRoot
       xml:space="preserve"
       id="flowRoot3752"
       style="fill:black;stroke:none;stroke-opacity:1;stroke-width:1px;stroke-linejoin:miter;stroke-linecap:butt;fill-opacity:1;font-family:Sans;font-style:normal;font-weight:normal;font-size:11px;line-height:125%;letter-spacing:0px;word-spacing:0px"><flowRegion
         id="flowRegion3754"><rect
           id="rect3756"
           width="715.05988"
           height="284.60486"
           x="-49.667885"
           y="440.7178" /></flowRegion><flowPara
         id="flowPara3758"></flowPara></flowRoot><text
       xml:space="preserve"
       style="font-size:8.80000019px;font-style:normal;font-weight:normal;line-height:125%;letter-spacing:0px;word-spacing:0px;fill:#000000;fill-opacity:1;stroke:none;font-family:Sans"
       x="386.63535"
       y="-407.7204"
       id="text3765"
       sodipodi:linespacing="125%"
       transform="scale(1,-1)"><tspan
         sodipodi:role="line"
         id="tspan3767"
         x="386.63535"
         y="-407.7204">create new individuals</tspan><tspan
         sodipodi:role="line"
         x="386.63535"
         y="-396.7204"
         id="tspan3769">from the mating pool by</tspan><tspan
         sodipodi:role="line"
         x="386.63535"
         y="-385.7204"
         id="tspan3771">crossover and mutation</tspan></text>
<text
       xml:space="preserve"
       style="font-size:8.80000019px;font-style:normal;font-weight:normal;line-height:125%;letter-spacing:0px;word-spacing:0px;fill:#000000;fill-opacity:1;stroke:none;font-family:Sans"
       x="322.86649"
       y="-320.39728"
       id="text3775"
       sodipodi:linespacing="125%"
       transform="scale(1,-1)"><tspan
         sodipodi:role="line"
         id="tspan3777"
         x="322.86649"
         y="-320.39728">select the fittest indi-</tspan><tspan
         sodipodi:role="line"
         x="322.86649"
         y="-309.39728"
         id="tspan3779">viduals for reproduction</tspan></text>
</g></svg>